<?xml version="1.0" encoding="UTF-8"?>
<svg id="Layer_1" xmlns="http://www.w3.org/2000/svg" version="1.1" viewBox="0 0 800 800">
  <!-- Generator: Adobe Illustrator 29.1.0, SVG Export Plug-In . SVG Version: 2.1.0 Build 142)  -->
  <defs>
    <style>
      .st0, .st1 {
        fill: #2c599d;
      }

      .st1 {
        fill-rule: evenodd;
      }
    </style>
  </defs>
  <g id="SVGRepo_iconCarrier">
    <path class="st1" d="M400,308.3c-87.4,0-158.3,70.9-158.3,158.3s70.9,158.3,158.3,158.3,158.3-70.9,158.3-158.3-70.9-158.3-158.3-158.3ZM291.7,466.7c0-59.8,48.5-108.3,108.3-108.3s108.3,48.5,108.3,108.3-48.5,108.3-108.3,108.3-108.3-48.5-108.3-108.3Z"/>
    <path class="st1" d="M398.3,41.7c-29.9,0-54.9,0-74.7,2.7-20.9,2.8-39.8,9-55,24.2-15.2,15.2-21.4,34.1-24.2,55-2,14.7-2.5,32.1-2.6,52.3-21.6.7-40.9,2-58,4.3-39.1,5.3-70.7,16.3-95.7,41.3-24.9,24.9-36,56.6-41.3,95.7-5.1,38-5.1,86.5-5.1,147.8v3.8c0,61.3,0,109.8,5.1,147.8,5.3,39.1,16.3,70.7,41.3,95.7,24.9,24.9,56.6,36,95.7,41.3,38,5.1,86.5,5.1,147.8,5.1h137.1c61.3,0,109.8,0,147.8-5.1,39.1-5.3,70.7-16.3,95.7-41.3s36-56.6,41.3-95.7c5.1-38,5.1-86.5,5.1-147.7v-3.8c0-61.3,0-109.8-5.1-147.8-5.3-39.1-16.3-70.7-41.3-95.7-24.9-24.9-56.6-36-95.7-41.3-17.1-2.3-36.4-3.6-58-4.3,0-20.2-.6-37.7-2.6-52.3-2.8-20.9-9-39.8-24.2-55-15.2-15.2-34.1-21.4-55-24.2-19.8-2.7-44.8-2.7-74.8-2.7h-3.6ZM508.3,175.1c-.1-19-.6-33.4-2.2-44.9-2.1-15.4-5.6-22-10-26.3-4.3-4.3-10.9-7.9-26.3-10-16.1-2.2-37.7-2.2-69.8-2.2s-53.7,0-69.8,2.2c-15.4,2.1-22,5.6-26.3,10-4.3,4.3-7.9,10.9-10,26.3-1.6,11.5-2,25.9-2.2,44.9h216.6ZM123.4,256.7c14.1-14.1,33.4-22.6,67-27.1,34.3-4.6,79.4-4.7,143-4.7h133.3c63.6,0,108.7,0,143,4.7,33.5,4.5,52.9,13,67,27.1s22.6,33.4,27.1,67c4.6,34.3,4.7,79.4,4.7,143s0,108.7-4.7,143c-4.5,33.5-13,52.9-27.1,67s-33.4,22.6-67,27.1c-34.3,4.6-79.4,4.7-143,4.7h-133.3c-63.6,0-108.7,0-143-4.7-33.5-4.5-52.9-13-67-27.1-14.1-14.1-22.6-33.4-27.1-67-4.6-34.3-4.7-79.4-4.7-143s0-108.7,4.7-143c4.5-33.5,13-52.9,27.1-67h0Z"/>
  </g>
  <g id="SVGRepo_iconCarrier1">
    <path class="st0" d="M402.8,374.8l-5.6,9.3-22.2,36.5h-55.8l6,10.1,21.8,36-21.8,36-6,10.1h55.8l22.2,36.5,5.6,9.3,5.6-9.3,22.2-36.5h56.4l-6.2-10.1-22-36,22-36,6.2-10.1h-56.4l-22.2-36.5-5.6-9.3ZM402.8,400.1l12.4,20.4h-24.7l12.4-20.4h0ZM342.6,433.7h24.5l-12.4,20.2-12.2-20.2h.1ZM382.4,433.7h41l20,33-20,33h-41l-19.8-33,19.8-33ZM438.6,433.7h24.9l-12.4,20.4-12.6-20.4h.1ZM451.2,479.2l12.4,20.4h-24.9l12.6-20.4h-.1ZM354.8,479.4l12.4,20.2h-24.5l12.2-20.2h-.1ZM390.4,512.8h24.7l-12.4,20.4-12.4-20.4h0Z"/>
  </g>
</svg>