<?xml version="1.0" encoding="UTF-8"?>
<svg id="Layer_1" xmlns="http://www.w3.org/2000/svg" version="1.1" viewBox="0 0 800 800">
  <!-- Generator: Adobe Illustrator 29.1.0, SVG Export Plug-In . SVG Version: 2.1.0 Build 142)  -->
  <defs>
    <style>
      .st0 {
        fill: #fff;
      }
    </style>
  </defs>
  <g id="SVGRepo_iconCarrier">
    <path class="st0" d="M733.2,680.4c-1.9,25.3-23.9,43.9-49.1,42-8.1-.5-13.8-3.3-21-6.7,0,0-129.8-88.3-137.4-94.5-12.9-11-25.8-23.9-31.5-42.5-1.9-6.7-28.1-95.9-28.1-95.9l-11.8,250H190.9l6.4-100.7h-62.3c-37.7,0-68.2-30.5-68.2-68.2s1.4-17.7,4.8-25.3c0,0,70.6-158.4,84-184.2,19.6-38.6,53.9-55.3,102.1-53.9h127.4L118.2,492l-23.9,55.8c-2.4,4.8-3.3,10.5-3.3,16.2,0,23.9,19.6,43.4,43.4,43.4h221.9c37.7,0,68.2-30.5,68.2-68.2s-23.9-61.5-55.3-67.3l64.9-172.2h15.3c35.8,0,63.9,24.3,72,52l51,184.2c1,2.9,4.3,8.6,8.6,11.9,5.2,3.8,134.5,92.6,134.5,92.6,11.9,9.1,19.1,23.9,17.7,40.1ZM341.5,269.2c55.8,4.3,104.5-37.2,108.8-93,4.3-55.8-37.2-104.5-93-108.8s-104.5,37.2-108.8,93c-4.3,55.8,37.2,104.5,93,108.8ZM399.7,538.7c0-22.4-17.2-40.6-38.6-42.9l-31.5,86.8,26.7-.5c23.9,0,43.4-19.6,43.4-43.4Z"/>
  </g>
</svg>