<?xml version="1.0" encoding="UTF-8"?>
<svg id="Layer_1" xmlns="http://www.w3.org/2000/svg" version="1.1" viewBox="0 0 1920 1080">
  <!-- Generator: Adobe Illustrator 29.1.0, SVG Export Plug-In . SVG Version: 2.1.0 Build 142)  -->
  <defs>
    <style>
      .st0 {
        display: none;
        fill: #fefefe;
      }

      .st1 {
        fill: #084081;
      }
    </style>
  </defs>
  <path class="st0" d="M976.7,462v1c-1.2.7-1.9,2-2.2,3.9l-33,22.4-2,.7h-.5v-28h37.7Z"/>
  <path class="st1" d="M977.9,462c4.4,2.4,1.6,7.8-2.6,5.4l-34.6,23.4c-.7.5-1,0-1.3-.6,11.1-8.5,23.1-15.8,34.7-23.7.5-2.3.2-3.5,2.8-4.5h1,0Z"/>
  <path class="st1" d="M974.5,612.8l-35-23.8,1.8-.3,33.5,22.7c1.4.5,3.9-1.7,5.2,1.4,2.2,5-6.6,5.8-5.4,0h0Z"/>
  <path class="st1" d="M974.6,541h-35.6v-1h35.6c.2,0,.4-2.6,3-2.3,5.7.6.2,10.5-3,3.3Z"/>
</svg>