<?xml version="1.0" encoding="UTF-8"?>
<svg id="Layer_1" xmlns="http://www.w3.org/2000/svg" version="1.1" viewBox="0 0 800 800">
  <!-- Generator: Adobe Illustrator 29.1.0, SVG Export Plug-In . SVG Version: 2.1.0 Build 142)  -->
  <defs>
    <style>
      .st0 {
        fill: #224578;
        fill-rule: evenodd;
      }
    </style>
  </defs>
  <path class="st0" d="M409.8,476.4c-13,13-13,34.1,0,47.1,13,13,34.1,13,47.1,0l97.1-97.1c.5-.5,1-1,1.5-1.5,6.9-6.1,11.2-15,11.2-24.9s-4.3-18.8-11.2-24.9c-.5-.5-1-1-1.5-1.5l-97.1-97.1c-13-13-34.1-13-47.1,0-13,13-13,34.1,0,47.1l43.1,43.1h-186.2c-18.4,0-33.3,14.9-33.3,33.3s14.9,33.3,33.3,33.3h186.2l-43.1,43.1ZM241.7,79.6c43.3-9.6,95.8-12.9,158.3-12.9s115,3.3,158.3,12.9c43.7,9.7,80,26.3,107.9,54.2,27.9,27.9,44.5,64.2,54.2,107.9,9.6,43.3,12.9,95.8,12.9,158.3s-3.3,115-12.9,158.3c-9.7,43.7-26.3,80-54.2,107.9-27.9,27.9-64.2,44.5-107.9,54.2-43.3,9.6-95.8,12.9-158.3,12.9s-115-3.3-158.3-12.9c-43.7-9.7-80-26.3-107.9-54.2-27.9-27.9-44.5-64.2-54.2-107.9-9.6-43.3-12.9-95.8-12.9-158.3s3.3-115,12.9-158.3c9.7-43.7,26.3-80,54.2-107.9,27.9-27.9,64.2-44.5,107.9-54.2Z"/>
</svg>