<?xml version="1.0" encoding="UTF-8"?>
<svg xmlns="http://www.w3.org/2000/svg" viewBox="0 0 72.55 94.62">
  <defs>
    <style>
      .cls-1 {
        fill: none;
        stroke: #fff;
        stroke-linecap: round;
        stroke-linejoin: round;
        stroke-width: 2.5px;
      }

      .cls-2 {
        fill: #fff;
      }
    </style>
  </defs>
  <g id="Layer_7" data-name="Layer 7">
    <path class="cls-1" d="M30.28,24.99c-.65-.75-1.48-1.07-1.8-1.24-.64-.34-1.29-.64-1.19,0,.42,2.89.69,4.99,2.98,5.12"/>
  </g>
  <g id="Layer_2" data-name="Layer 2">
    <g>
      <g id="_Mirror_Repeat_" data-name="&amp;lt;Mirror Repeat&amp;gt;">
        <path class="cls-1" d="M36.28,1.37c-12.55-.2-22.12-.11-27,0-1.46.03-4.12.13-6,2-1.59,1.58-1.92,3.75-2,5-.03,2.45-.21,21.71,1,35,.32,3.55.81,7.4,2,12,.5,1.94,1.36,5.23,3,9,3.25,7.48,7.59,12.34,10,15,6.44,7.09,12.86,10.82,15,12,1.6.88,2.99,1.54,4,2"/>
      </g>
      <g id="_Mirror_Repeat_-2" data-name="&amp;lt;Mirror Repeat&amp;gt;">
        <g>
          <path class="cls-1" d="M36.28,1.37c12.55-.2,22.12-.11,27,0,1.46.03,4.12.13,6,2,1.59,1.58,1.92,3.75,2,5,.03,2.45.21,21.71-1,35-.32,3.55-.81,7.4-2,12-.5,1.94-1.36,5.23-3,9-3.25,7.48-7.59,12.34-10,15-6.44,7.09-12.86,10.82-15,12-1.6.88-2.99,1.54-4,2"/>
          <path class="cls-1" d="M44.78,56.87h22C56.78,38.54,46.78,20.2,36.78,1.87"/>
        </g>
      </g>
      <path class="cls-1" d="M27.78,56.87H5.78C15.78,38.54,25.78,20.2,35.78,1.87"/>
    </g>
    <line class="cls-1" x1="36.28" y1="92.22" x2="36.28" y2="68.87"/>
  </g>
  <g id="Layer_6" data-name="Layer 6">
    <g>
      <g id="_Mirror_Repeat_-3" data-name="&amp;lt;Mirror Repeat&amp;gt;">
        <g>
          <path class="cls-1" d="M36.78,53.87c-6,0-9,3-9,3"/>
          <path class="cls-1" d="M36.78,13.87c-1.83-.37-4.21,1.96-5.34,3.22-.42.47-.65,1.09-.62,1.72l1.96,49.45"/>
          <path class="cls-1" d="M36.78,63.87c-1.02,0-2.05.15-3.03.43"/>
          <path class="cls-1" d="M36.78,58.92c-1.05,0-2.11.14-3.11.4"/>
          <path class="cls-1" d="M36.78,68.87c-4,0-6,1-6,1"/>
        </g>
      </g>
      <g id="_Mirror_Repeat_-4" data-name="&amp;lt;Mirror Repeat&amp;gt;">
        <g>
          <path class="cls-1" d="M35.75,53.87c6,0,9,3,9,3"/>
          <line class="cls-1" x1="40.41" y1="51.53" x2="39.75" y2="68.27"/>
          <path class="cls-1" d="M35.75,13.87c1.83-.37,4.21,1.96,5.34,3.22.42.47.65,1.09.62,1.72l-.16,4.08"/>
          <path class="cls-1" d="M35.75,63.87c1.02,0,2.05.15,3.03.43"/>
          <path class="cls-1" d="M35.75,58.92c1.05,0,2.11.14,3.11.4"/>
          <path class="cls-1" d="M35.75,68.87c4,0,6,1,6,1"/>
        </g>
      </g>
    </g>
    <line class="cls-1" x1="36.28" y1="29.09" x2="36.28" y2="15.21"/>
    <line class="cls-1" x1="36.28" y1="30.46" x2="36.28" y2="29.09"/>
    <line class="cls-1" x1="36.28" y1="41.27" x2="36.28" y2="36.37"/>
    <line class="cls-1" x1="36.28" y1="52.87" x2="36.28" y2="46.78"/>
  </g>
  <g id="Layer_4" data-name="Layer 4">
    <path class="cls-1" d="M43.78,12.87c6.88-5.35,14.64-.23,19.15-5.16.43-.43.98-.98,1.54-1.48.99-.88,2.55-.26,2.67,1.06,1.6,18.03-12.5,28.3-12.36,27.58"/>
    <path class="cls-1" d="M45.78,16.87l3.43-.51c1.77-.44,3.49.9,3.49,2.73l.08,11.78"/>
    <path class="cls-1" d="M51.56,15.67c4.55-4.55,11.94,1.71,15.3-4.48"/>
    <path class="cls-1" d="M52.89,22.91c3.38-4.04,9.57-.02,12.87-4.13"/>
    <path class="cls-1" d="M51.78,28.87c2.04-2.23,7.37-1.6,10-2"/>
  </g>
  <g id="Layer_5" data-name="Layer 5">
    <g id="_Mirror_Repeat_-5" data-name="&amp;lt;Mirror Repeat&amp;gt;">
      <path class="cls-1" d="M41.32,44.59s3.37.25,6.45-4.72c1.62-2.62,2.21-4.66,2-7h0c-2.19.85-4.31,1.61-5.94,4.23-3.08,4.98-1.91,7.86-1.91,7.86"/>
    </g>
    <g id="_Mirror_Repeat_-6" data-name="&amp;lt;Mirror Repeat&amp;gt;">
      <path class="cls-1" d="M40.66,48.43s-.78-3.46-3.27-5.8c-1.31-1.24-3.62-2.75-4.62-1.75-.89.78.73,3.12,1.98,4.42,2.38,2.46,5.85,3.2,5.85,3.2l.06-.06Z"/>
    </g>
    <g id="_Mirror_Repeat_-7" data-name="&amp;lt;Mirror Repeat&amp;gt;">
      <path class="cls-1" d="M40.93,38.62s-.67-3.73-3.09-6.49c-1.28-1.46-3.05-3.26-4.05-3.26l-.31.41c-.69,1.59.32,3.82,1.59,5.27,2.42,2.76,6.03,3.92,6.03,3.92"/>
    </g>
    <g>
      <g id="_Mirror_Repeat_-8" data-name="&amp;lt;Mirror Repeat&amp;gt;">
        <path class="cls-1" d="M42.97,21.45c-1.52,1.82-2.64,3.62-3.13,7.07-.92,6.55.96,9.12.96,9.12"/>
      </g>
      <g id="_Mirror_Repeat_-9" data-name="&amp;lt;Mirror Repeat&amp;gt;">
        <g>
          <path class="cls-1" d="M43.09,33.79c-1.07,3.01-2.38,3.83-2.38,3.83"/>
          <path class="cls-1" d="M43.09,21.48c.86,2.23,1.4,4.29,1.08,7.34"/>
        </g>
      </g>
    </g>
    <path class="cls-2" d="M39.53,39.37c.69,0,1.25.56,1.25,1.25s-.56,1.25-1.25,1.25-1.25-.56-1.25-1.25.56-1.25,1.25-1.25M39.53,36.87c-2.07,0-3.75,1.68-3.75,3.75s1.68,3.75,3.75,3.75,3.75-1.68,3.75-3.75-1.68-3.75-3.75-3.75h0Z"/>
    <path class="cls-2" d="M45.13,30.72c.69,0,1.25.56,1.25,1.25s-.56,1.25-1.25,1.25-1.25-.56-1.25-1.25.56-1.25,1.25-1.25M45.13,28.22c-2.07,0-3.75,1.68-3.75,3.75s1.68,3.75,3.75,3.75,3.75-1.68,3.75-3.75-1.68-3.75-3.75-3.75h0Z"/>
    <path class="cls-1" d="M39.78,48.87c.03.7.03,1.42,0,2.15-.38,8.74-5.33,14.94-9,18.85"/>
    <g id="_Mirror_Repeat_-10" data-name="&amp;lt;Mirror Repeat&amp;gt;">
      <path class="cls-1" d="M40.64,50.01s2.72,1.29,7.11-1.78c2.31-1.62,3.55-3.09,4.22-5.07h0c-2.14,0-4.19-.07-6.5,1.55-4.39,3.07-4.46,5.8-4.46,5.8"/>
    </g>
  </g>
</svg>